<svg width="1200" height="620" viewBox="0 0 1200 620" fill="none" xmlns="http://www.w3.org/2000/svg"><defs><linearGradient id="bg" x1="0" y1="0" x2="1200" y2="620"><stop stop-color="#f7faff"/><stop offset="1" stop-color="#edf3fb"/></linearGradient><linearGradient id="plasma" x1="257" y1="100" x2="928" y2="430"><stop stop-color="#a8d4ff"/><stop offset=".4" stop-color="#4ca6ff"/><stop offset="1" stop-color="#235ea8"/></linearGradient></defs><rect width="1200" height="620" rx="24" fill="url(#bg)"/><g opacity=".25"><path d="M88 492C207 426 258 491 361 457C456 426 534 367 633 374C765 383 797 462 944 449C1018 443 1072 411 1123 385" stroke="#c5d4e6" stroke-width="2"/><path d="M104 92H1099" stroke="#dae4f0" stroke-width="2" stroke-dasharray="5 11"/><path d="M101 553H1094" stroke="#dae4f0" stroke-width="2" stroke-dasharray="5 11"/></g><rect x="132" y="134" width="28" height="122" rx="14" fill="#5a6370"/><rect x="1024" y="318" width="34" height="160" rx="17" fill="#5a6370"/><g stroke="url(#plasma)" stroke-width="6" stroke-linecap="round" stroke-linejoin="round"><path d="M158 195C224 193 271 205 321 225C383 251 426 282 505 302"/><path d="M506 301C588 321 672 327 784 340C853 348 937 381 1023 409"/><path d="M404 248L449 219"/><path d="M434 270L491 247"/><path d="M472 291L542 283"/><path d="M568 316L617 282"/><path d="M623 321L697 299"/><path d="M699 331L742 303"/><path d="M775 339L832 316"/><path d="M837 352L899 341"/><path d="M324 226L349 190"/><path d="M337 230L395 212"/><path d="M721 333L765 363"/><path d="M805 346L847 388"/><path d="M892 368L937 405"/></g><g fill="#1f2a36" font-family="Inter,Arial,sans-serif"><text x="118" y="82" font-size="36" font-weight="700">Research overview</text><text x="118" y="108" font-size="16" fill="#627080">Electrical breakdown · multiscale plasma simulation · diagnostics</text><text x="190" y="181" font-size="18" font-weight="700">Electrical breakdown</text><text x="190" y="206" font-size="14" fill="#627080">Streamer-to-leader evolution in long air gaps</text><text x="470" y="214" font-size="18" font-weight="700">Multiscale modelling</text><text x="470" y="239" font-size="14" fill="#627080">3-D and reduced-order simulation across scales</text><text x="835" y="298" font-size="18" font-weight="700">Diagnostics &amp; data</text><text x="835" y="323" font-size="14" fill="#627080">Imaging, current signals and machine learning</text></g></svg>